<?xml version="1.0" standalone="no"?><!DOCTYPE svg PUBLIC "-//W3C//DTD SVG 1.1//EN" "http://www.w3.org/Graphics/SVG/1.1/DTD/svg11.dtd"><svg t="1575430825262" class="icon" viewBox="0 0 1030 1024" version="1.1" xmlns="http://www.w3.org/2000/svg" p-id="4911" xmlns:xlink="http://www.w3.org/1999/xlink" width="128.75" height="128"><defs><style type="text/css"></style></defs><path d="M1006.933333 1024H17.066667c-3.413333 0-10.24-3.413333-13.653334-6.826667-3.413333-3.413333-3.413333-6.826667-3.413333-13.653333l30.72-153.6c10.24-47.786667 40.96-88.746667 88.746667-105.813333l174.08-88.746667c6.826667-3.413333 13.653333-3.413333 20.48 3.413333C368.64 716.8 436.906667 750.933333 512 750.933333c71.68 0 143.36-34.133333 197.973333-92.16 6.826667-6.826667 13.653333-6.826667 20.48-3.413333l184.32 95.573333c44.373333 17.066667 78.506667 58.026667 85.333334 105.813334l30.72 146.773333c0 3.413333 0 10.24-3.413334 13.653333s-17.066667 6.826667-20.48 6.826667zM37.546667 989.866667h948.906666l-23.893333-126.293334c-6.826667-37.546667-30.72-68.266667-68.266667-81.92l-174.08-92.16C662.186667 750.933333 587.093333 785.066667 508.586667 785.066667c-78.506667 0-153.6-34.133333-211.626667-95.573334l-163.84 81.92c-34.133333 13.653333-61.44 44.373333-68.266667 81.92l-27.306666 136.533334z" fill="" p-id="4912"></path><path d="M512 716.8c-105.813333 0-208.213333-95.573333-245.76-221.866667-34.133333 0-61.44-44.373333-61.44-102.4 0-30.72 0-95.573333 47.786667-95.573333 10.24 0 17.066667 6.826667 17.066666 17.066667s-6.826667 20.48-17.066666 20.48c-3.413333 0-13.653333 3.413333-13.653334 58.026666 0 40.96 17.066667 68.266667 27.306667 68.266667h3.413333c3.413333-3.413333 10.24-3.413333 17.066667 0 3.413333 3.413333 10.24 6.826667 10.24 10.24 27.306667 119.466667 119.466667 211.626667 215.04 211.626667 98.986667 0 191.146667-81.92 221.866667-197.973334 0-6.826667 3.413333-10.24 10.24-10.24 3.413333-3.413333 10.24 0 13.653333 0h3.413333c10.24 0 27.306667-27.306667 27.306667-68.266666v-10.24c0-20.48 0-51.2-3.413333-58.026667-10.24 0-17.066667-6.826667-17.066667-17.066667s6.826667-17.066667 17.066667-17.066666 17.066667 3.413333 23.893333 10.24c13.653333 13.653333 13.653333 44.373333 13.653333 81.92v10.24c0 58.026667-23.893333 102.4-61.44 102.4-37.546667 122.88-139.946667 208.213333-249.173333 208.213333zM512 204.8c-44.373333 0-68.266667-23.893333-68.266667-68.266667V34.133333c0-3.413333 0-6.826667 3.413334-10.24 3.413333-3.413333 20.48-23.893333 64.853333-23.893333s61.44 20.48 64.853333 23.893333c3.413333 3.413333 3.413333 6.826667 3.413334 10.24v102.4c0 44.373333-23.893333 68.266667-68.266667 68.266667z m-34.133333-163.84V136.533333c0 27.306667 6.826667 34.133333 34.133333 34.133334s34.133333-6.826667 34.133333-34.133334V40.96c-3.413333-3.413333-17.066667-6.826667-34.133333-6.826667s-27.306667 3.413333-34.133333 6.826667z" fill="" p-id="4913"></path><path d="M563.2 409.6h-92.16c-44.373333 0-85.333333-13.653333-122.88-34.133333l-136.533333-68.266667c-3.413333-3.413333-6.826667-10.24-6.826667-17.066667s3.413333-13.653333 10.24-13.653333l34.133333-17.066667C252.586667 122.88 327.68 34.133333 443.733333 34.133333c10.24 0 17.066667 6.826667 17.066667 17.066667s-6.826667 17.066667-17.066667 17.066667C324.266667 68.266667 283.306667 177.493333 283.306667 269.653333c0 6.826667-3.413333 13.653333-10.24 13.653334l-13.653334 6.826666 105.813334 54.613334c34.133333 20.48 68.266667 30.72 105.813333 30.72h92.16c37.546667 0 71.68-10.24 102.4-30.72l98.986667-51.2-13.653334-6.826667c-6.826667-3.413333-10.24-10.24-10.24-13.653333 0-102.4-51.2-204.8-163.84-204.8-10.24 0-17.066667-6.826667-17.066666-17.066667s10.24-17.066667 20.48-17.066667c112.64 0 191.146667 92.16 194.56 228.693334l34.133333 17.066666c6.826667 3.413333 10.24 6.826667 10.24 13.653334s-3.413333 13.653333-10.24 17.066666L682.666667 375.466667c-34.133333 20.48-78.506667 34.133333-119.466667 34.133333zM187.733333 1017.173333c-10.24 0-17.066667-6.826667-17.066666-17.066666v-266.24c0-10.24 6.826667-17.066667 17.066666-17.066667s17.066667 6.826667 17.066667 17.066667v266.24c0 6.826667-6.826667 17.066667-17.066667 17.066666zM290.133333 1024c-10.24 0-17.066667-6.826667-17.066666-17.066667V682.666667c0-10.24 6.826667-17.066667 17.066666-17.066667s17.066667 6.826667 17.066667 17.066667v324.266666c0 10.24-6.826667 17.066667-17.066667 17.066667z" fill="" p-id="4914"></path><path d="M733.866667 1006.933333c-10.24 0-17.066667-6.826667-17.066667-17.066666v-307.2c0-10.24 6.826667-17.066667 17.066667-17.066667s17.066667 6.826667 17.066666 17.066667v307.2c0 10.24-6.826667 17.066667-17.066666 17.066666z" fill="" p-id="4915"></path><path d="M836.266667 1024c-10.24 0-17.066667-6.826667-17.066667-17.066667v-273.066666c0-10.24 6.826667-17.066667 17.066667-17.066667s17.066667 6.826667 17.066666 17.066667v273.066666c0 10.24-6.826667 17.066667-17.066666 17.066667z" fill="" p-id="4916"></path><path d="M512 409.6c-58.026667 0-102.4-44.373333-102.4-102.4s44.373333-102.4 102.4-102.4 102.4 44.373333 102.4 102.4-44.373333 102.4-102.4 102.4z m0-170.666667c-37.546667 0-68.266667 30.72-68.266667 68.266667s30.72 68.266667 68.266667 68.266667 68.266667-30.72 68.266667-68.266667-30.72-68.266667-68.266667-68.266667z" fill="" p-id="4917"></path></svg>