<?xml version="1.0" standalone="no"?><!DOCTYPE svg PUBLIC "-//W3C//DTD SVG 1.1//EN" "http://www.w3.org/Graphics/SVG/1.1/DTD/svg11.dtd"><svg t="1575430859377" class="icon" viewBox="0 0 1024 1024" version="1.1" xmlns="http://www.w3.org/2000/svg" p-id="6221" xmlns:xlink="http://www.w3.org/1999/xlink" width="128" height="128"><defs><style type="text/css"></style></defs><path d="M921.173333 494.506667 981.333333 554.666667 576 960 359.253333 742.826667 419.413333 682.666667 576 839.68 921.173333 494.506667M170.666667 682.666667 170.666667 128 256 128 384 128C478.293333 128 554.666667 204.373333 554.666667 298.666667 554.666667 364.373333 517.546667 421.546667 462.933333 450.133333L597.333333 682.666667 512 682.666667 388.693333 469.333333 256 469.333333 256 682.666667 170.666667 682.666667M256 384 384 384C430.933333 384 469.333333 345.6 469.333333 298.666667 469.333333 251.733333 430.933333 213.333333 384 213.333333L256 213.333333 256 384Z" p-id="6222"></path></svg>