<?xml version="1.0" standalone="no"?><!DOCTYPE svg PUBLIC "-//W3C//DTD SVG 1.1//EN" "http://www.w3.org/Graphics/SVG/1.1/DTD/svg11.dtd"><svg t="1574855071174" class="icon" viewBox="0 0 1024 1024" version="1.1" xmlns="http://www.w3.org/2000/svg" p-id="4914" xmlns:xlink="http://www.w3.org/1999/xlink" width="128" height="128"><defs><style type="text/css"></style></defs><path d="M688 848h-352l176-288z" fill="#E0EBFE" p-id="4915"></path><path d="M96 544v448a32 32 0 0 0 32 32h768a32 32 0 0 0 32-32V544c0-35.296-28.704-64-64-64v-64c35.296 0 64-28.704 64-64V272a31.936 31.936 0 0 0-7.04-20l-192-240A32 32 0 0 0 704 0H128a32 32 0 0 0-32 32v320c0 35.296 28.704 64 64 64v64c-35.296 0-64 28.704-64 64z m64-192V64h528.64L864 283.2V352c-35.296 0-64 28.704-64 64v64c0 35.296 28.704 64 64 64v416H160V544c35.296 0 64-28.704 64-64v-64c0-35.296-28.704-64-64-64z" fill="#5465CF" p-id="4916"></path><path d="M322.048 855.84A16 16 0 0 0 336 864h352.64a16 16 0 0 0 11.04-27.584l-174.016-284.768c-5.824-9.504-21.504-9.504-27.328 0l-176 288a16 16 0 0 0-0.288 16.192zM512 590.688L659.456 832h-294.912L512 590.688zM224 112a16 16 0 1 0-32 0v96a16 16 0 1 0 32 0v-96zM272 224a16 16 0 0 0 16-16v-96a16 16 0 1 0-32 0v96a16 16 0 0 0 16 16zM336 224a16 16 0 0 0 16-16v-96a16 16 0 1 0-32 0v96a16 16 0 0 0 16 16zM400 224a16 16 0 0 0 16-16v-96a16 16 0 1 0-32 0v96a16 16 0 0 0 16 16zM464 224a16 16 0 0 0 16-16v-96a16 16 0 1 0-32 0v96a16 16 0 0 0 16 16zM528 224a16 16 0 0 0 16-16v-96a16 16 0 1 0-32 0v96a16 16 0 0 0 16 16zM592 224a16 16 0 0 0 16-16v-96a16 16 0 1 0-32 0v96a16 16 0 0 0 16 16zM656 224a16 16 0 0 0 16-16v-96a16 16 0 1 0-32 0v96a16 16 0 0 0 16 16z" fill="#5465CF" p-id="4917"></path></svg>