<?xml version="1.0" standalone="no"?><!DOCTYPE svg PUBLIC "-//W3C//DTD SVG 1.1//EN" "http://www.w3.org/Graphics/SVG/1.1/DTD/svg11.dtd"><svg t="1574682677089" class="icon" viewBox="0 0 1024 1024" version="1.1" xmlns="http://www.w3.org/2000/svg" p-id="6094" xmlns:xlink="http://www.w3.org/1999/xlink" width="128" height="128"><defs><style type="text/css"></style></defs><path d="M455.224889 796.444444H256a28.444444 28.444444 0 0 1-28.444444-28.444444v-512a28.444444 28.444444 0 0 1 28.444444-28.444444h512a28.444444 28.444444 0 0 1 28.444444 28.444444V455.111111a28.444444 28.444444 0 1 0 56.888889 0V256A85.333333 85.333333 0 0 0 768 170.666667h-512A85.333333 85.333333 0 0 0 170.666667 256v512A85.333333 85.333333 0 0 0 256 853.333333h199.224889a28.444444 28.444444 0 1 0 0-56.888889z" fill="#5A6677" p-id="6095"></path><path d="M455.111111 625.777778h341.333333v170.666666h-171.52a28.444444 28.444444 0 1 0 0 56.888889H796.444444a56.888889 56.888889 0 0 0 56.888889-56.888889v-170.666666a56.888889 56.888889 0 0 0-56.888889-56.888889H455.111111a28.444444 28.444444 0 0 0 0 56.888889z" fill="#5A6677" p-id="6096"></path><path d="M488.448 598.926222l100.579556 100.579556a28.444444 28.444444 0 0 1-40.277334 40.220444l-120.604444-120.661333a28.330667 28.330667 0 0 1 0-40.220445l120.604444-120.661333a28.444444 28.444444 0 0 1 40.277334 40.220445l-100.579556 100.522666z" fill="#5A6677" p-id="6097"></path></svg>